<svg id="visual" viewBox="0 0 960 300" width="960" height="300" xmlns="http://www.w3.org/2000/svg" xmlns:xlink="http://www.w3.org/1999/xlink" version="1.1"><rect x="0" y="0" width="960" height="300" fill="#001220"></rect><path d="M0 131L22.8 127C45.7 123 91.3 115 137 119C182.7 123 228.3 139 274 141C319.7 143 365.3 131 411.2 127.7C457 124.3 503 129.7 548.8 133.2C594.7 136.7 640.3 138.3 686 134.5C731.7 130.7 777.3 121.3 823 119.7C868.7 118 914.3 124 937.2 127L960 130L960 301L937.2 301C914.3 301 868.7 301 823 301C777.3 301 731.7 301 686 301C640.3 301 594.7 301 548.8 301C503 301 457 301 411.2 301C365.3 301 319.7 301 274 301C228.3 301 182.7 301 137 301C91.3 301 45.7 301 22.8 301L0 301Z" fill="#2f08a8"></path><path d="M0 153L22.8 158C45.7 163 91.3 173 137 176.7C182.7 180.3 228.3 177.7 274 173.7C319.7 169.7 365.3 164.3 411.2 165.2C457 166 503 173 548.8 177.7C594.7 182.3 640.3 184.7 686 181.8C731.7 179 777.3 171 823 169.2C868.7 167.3 914.3 171.7 937.2 173.8L960 176L960 301L937.2 301C914.3 301 868.7 301 823 301C777.3 301 731.7 301 686 301C640.3 301 594.7 301 548.8 301C503 301 457 301 411.2 301C365.3 301 319.7 301 274 301C228.3 301 182.7 301 137 301C91.3 301 45.7 301 22.8 301L0 301Z" fill="#882fad"></path><path d="M0 220L22.8 209C45.7 198 91.3 176 137 171.7C182.7 167.3 228.3 180.7 274 184.3C319.7 188 365.3 182 411.2 178.5C457 175 503 174 548.8 176.5C594.7 179 640.3 185 686 190.5C731.7 196 777.3 201 823 194.8C868.7 188.7 914.3 171.3 937.2 162.7L960 154L960 301L937.2 301C914.3 301 868.7 301 823 301C777.3 301 731.7 301 686 301C640.3 301 594.7 301 548.8 301C503 301 457 301 411.2 301C365.3 301 319.7 301 274 301C228.3 301 182.7 301 137 301C91.3 301 45.7 301 22.8 301L0 301Z" fill="#bd5eb6"></path><path d="M0 242L22.8 239.3C45.7 236.7 91.3 231.3 137 231.5C182.7 231.7 228.3 237.3 274 235.5C319.7 233.7 365.3 224.3 411.2 218.5C457 212.7 503 210.3 548.8 212.8C594.7 215.3 640.3 222.7 686 228.3C731.7 234 777.3 238 823 237.5C868.7 237 914.3 232 937.2 229.5L960 227L960 301L937.2 301C914.3 301 868.7 301 823 301C777.3 301 731.7 301 686 301C640.3 301 594.7 301 548.8 301C503 301 457 301 411.2 301C365.3 301 319.7 301 274 301C228.3 301 182.7 301 137 301C91.3 301 45.7 301 22.8 301L0 301Z" fill="#e492c6"></path><path d="M0 265L22.8 262.3C45.7 259.7 91.3 254.3 137 249.8C182.7 245.3 228.3 241.7 274 239.3C319.7 237 365.3 236 411.2 241C457 246 503 257 548.8 263.2C594.7 269.3 640.3 270.7 686 270.8C731.7 271 777.3 270 823 267.3C868.7 264.7 914.3 260.3 937.2 258.2L960 256L960 301L937.2 301C914.3 301 868.7 301 823 301C777.3 301 731.7 301 686 301C640.3 301 594.7 301 548.8 301C503 301 457 301 411.2 301C365.3 301 319.7 301 274 301C228.3 301 182.7 301 137 301C91.3 301 45.7 301 22.8 301L0 301Z" fill="#ffc9df"></path></svg>